<?xml version="1.0" encoding="UTF-8" standalone="no"?>
<!-- Created with Inkscape (http://www.inkscape.org/) -->

<svg
   width="1024"
   height="1024"
   viewBox="0 0 1024 1024"
   version="1.1"
   id="svg1"
   xmlns:xlink="http://www.w3.org/1999/xlink"
   xmlns="http://www.w3.org/2000/svg"
   xmlns:svg="http://www.w3.org/2000/svg">
  <defs
     id="defs1">
    <linearGradient
       id="linearGradient5">
      <stop
         style="stop-color:#000000;stop-opacity:0;"
         offset="0"
         id="stop5" />
      <stop
         style="stop-color:#000000;stop-opacity:0.08;"
         offset="1"
         id="stop6" />
    </linearGradient>
    <linearGradient
       xlink:href="#linearGradient5"
       id="linearGradient6"
       x1="4.2783222"
       y1="56.420048"
       x2="49.886707"
       y2="20.534382"
       gradientUnits="userSpaceOnUse"
       gradientTransform="matrix(15.999996,-3.8781453e-8,3.8781453e-8,15.999996,-45.612727,205.64164)" />
  </defs>
  <rect
     style="fill:#ff992a;fill-opacity:1;fill-rule:evenodd;stroke:none;stroke-width:258.429;stroke-linecap:butt;stroke-linejoin:round;stroke-dasharray:none;stroke-opacity:1;paint-order:stroke fill markers"
     id="rect33"
     width="1024"
     height="1024"
     x="0"
     y="0" />
  <g
     id="layer1"
     transform="rotate(-8,48.837784,25.264732)">
    <g
       id="g10"
       transform="translate(-1.0192741,-0.55419234)"
       style="display:none">
      <path
         id="path1"
         style="fill:#ff6086;fill-opacity:1;fill-rule:evenodd;stroke:#ffffff;stroke-width:6;stroke-linejoin:round;stroke-dasharray:none;stroke-opacity:1;paint-order:stroke fill markers"
         d="m 23.745301,14.450726 c -0.235841,0.804181 -0.369908,1.613381 -0.369909,2.40888 0,0.658934 0.09717,1.325547 0.262958,1.992256 5.037402,3.145358 8.346754,11.477374 8.356631,11.502295 4.8e-5,3.9e-5 0.0047,0.0046 0.0047,0.0046 0,0 8.624976,-7.13546 8.624976,-13.499459 4e-6,-6.363984 -8.623799,-13.5005268 -8.623799,-13.5005268 0,0 -6.604631,5.4627 -8.25552,11.0919718 z" />
      <use
         x="0"
         y="0"
         xlink:href="#path1"
         id="use7"
         transform="rotate(72,32.000027,33.358878)" />
      <use
         x="0"
         y="0"
         xlink:href="#use7"
         id="use8"
         transform="rotate(72,32.000027,33.358878)" />
      <use
         x="0"
         y="0"
         xlink:href="#use8"
         id="use9"
         transform="rotate(72,32.000027,33.358878)" />
      <use
         x="0"
         y="0"
         xlink:href="#use9"
         id="use10"
         transform="rotate(72,32.000027,33.358878)" />
    </g>
    <g
       id="g14"
       transform="matrix(16.722453,0,0,16.722453,74.818903,147.40294)"
       style="fill:#ff992a;fill-opacity:1;stroke:none;stroke-width:0.999891;stroke-dasharray:none">
      <path
         id="path10"
         style="fill:#ff6086;fill-opacity:1;fill-rule:evenodd;stroke:#ffffff;stroke-width:11.514;stroke-linejoin:round;stroke-dasharray:none;stroke-opacity:1;paint-order:stroke fill markers"
         d="m 31.923201,3.9097899 c 0,0 -6.604002,5.4626334 -8.254889,11.0919001 -0.235841,0.80418 -0.370179,1.613931 -0.37018,2.409429 0,0.658933 0.09672,1.324753 0.262506,1.991461 5.037397,3.145355 8.34742,11.478658 8.357297,11.503579 4.8e-5,3.9e-5 0.0033,0.0044 0.0033,0.0044 0,0 8.626732,-7.13513 8.626732,-13.499123 4e-6,-6.363978 -8.624791,-13.5016581 -8.624791,-13.5016581 z M 49.600978,20.358261 c -0.759061,-0.109381 -1.513234,-0.163303 -2.246222,-0.142121 -0.8377,0.02421 -1.649749,0.147723 -2.406314,0.393545 -0.626682,0.203622 -1.229088,0.501929 -1.811933,0.865627 -1.43477,5.762817 -8.337167,11.484389 -8.357816,11.501483 -2.2e-5,5.8e-5 -0.0027,0.0055 -0.0027,0.0055 0,0 9.451159,5.999462 15.503675,4.03288 6.052504,-1.966573 10.174705,-12.374303 10.174705,-12.374303 0,0 -5.539921,-3.516973 -10.853345,-4.282641 z m -31.876576,-0.02843 c -6.025551,-0.961628 -14.3329189,4.308896 -14.3329189,4.308896 0,0 3.1546639,7.969928 7.9982619,11.279555 0.691942,0.472803 1.418628,0.85078 2.175191,1.096604 0.626684,0.203621 1.291004,0.316183 1.976313,0.364534 4.548051,-3.818881 13.495562,-4.391541 13.522315,-4.393234 5.2e-5,-3.3e-5 0.0063,-0.0031 0.0063,-0.0031 0,0 -4.121209,-10.407642 -10.173726,-12.374224 -0.378281,-0.122912 -0.770079,-0.21497 -1.171782,-0.279078 z m 15.96259,16.008213 c 0,0 -2.784835,10.841231 0.955826,15.989809 3.740648,5.148568 14.912566,5.853093 14.912566,5.853093 0,0 2.133227,-8.300625 0.160024,-13.825165 -0.281887,-0.789219 -0.64993,-1.523277 -1.117512,-2.166849 -0.387311,-0.533089 -0.856991,-1.014722 -1.382998,-1.456653 -5.924133,0.416263 -13.499464,-4.379063 -13.522103,-4.393419 -6.2e-5,-3e-6 -0.0058,-8.16e-4 -0.0058,-8.16e-4 z m -3.528363,-8.27e-4 c 0,0 -11.172118,0.704016 -14.912779,5.852594 -3.740655,5.148563 -0.957508,15.991115 -0.957508,15.991115 0,0 8.55371,-0.537451 13.198105,-4.121256 0.663485,-0.511972 1.247091,-1.087767 1.714674,-1.731337 0.387311,-0.533089 0.700562,-1.129807 0.958319,-1.766633 -2.226547,-5.505554 -0.0063,-14.192441 3.08e-4,-14.218408 -1.6e-5,-5.9e-5 -0.0011,-0.0061 -0.0011,-0.0061 z" />
    </g>
    <ellipse
       style="display:none;fill:url(#linearGradient6);fill-opacity:1;fill-rule:evenodd;stroke:none;stroke-width:102.656;stroke-linejoin:round;stroke-dasharray:none;stroke-opacity:1;paint-order:stroke fill markers"
       id="path5"
       cx="-93.223076"
       cy="1434.9568"
       transform="rotate(8)"
       rx="1460.264"
       ry="1157.9995" />
  </g>
</svg>
